<svg xmlns="http://www.w3.org/2000/svg" width="100%" height="100%" viewBox="0 0 169 44" fill="none" preserveAspectRatio="xMidYMid meet" aria-hidden="true" role="img">
<path d="M77.6207 10.7946V0.575195H80.9278C81.0082 0.575195 81.1738 0.577561 81.4245 0.582292C81.6753 0.587023 81.9166 0.603582 82.1484 0.63197C82.9716 0.731325 83.6695 1.01756 84.2419 1.49068C84.8144 1.9638 85.2497 2.56466 85.5478 3.29326C85.8458 4.02186 85.9949 4.81907 85.9949 5.68487C85.9949 6.55068 85.8458 7.34788 85.5478 8.07649C85.2497 8.80509 84.8144 9.40595 84.2419 9.87907C83.6695 10.3522 82.9716 10.6384 82.1484 10.7378C81.9166 10.7662 81.6753 10.7827 81.4245 10.7875C81.1738 10.7922 81.0082 10.7946 80.9278 10.7946H77.6207ZM79.5794 8.97778H80.9278C81.0555 8.97778 81.2282 8.97541 81.4458 8.97068C81.6635 8.96122 81.8598 8.93993 82.0349 8.90681C82.4796 8.81692 82.8415 8.60874 83.1207 8.28229C83.4045 7.95584 83.6127 7.56315 83.7452 7.10423C83.8824 6.6453 83.951 6.17218 83.951 5.68487C83.951 5.1739 83.88 4.68896 83.7381 4.23003C83.6009 3.77111 83.3903 3.38315 83.1065 3.06616C82.8226 2.74917 82.4654 2.5481 82.0349 2.46294C81.8598 2.42509 81.6635 2.4038 81.4458 2.39907C81.2282 2.39434 81.0555 2.39197 80.9278 2.39197H79.5794V8.97778Z" fill="currentColor"/>
<path d="M86.7106 10.7946L89.8332 0.575195H92.7145L95.8371 10.7946H93.85L91.068 1.78165H91.4371L88.6977 10.7946H86.7106ZM88.5842 8.66552V6.86294H93.9777V8.66552H88.5842Z" fill="currentColor"/>
<path d="M98.6339 10.7946V2.37778H95.4119V0.575195H103.786V2.37778H100.564V10.7946H98.6339Z" fill="currentColor"/>
<path d="M103.94 10.7946L107.062 0.575195H109.944L113.066 10.7946H111.079L108.297 1.78165H108.666L105.927 10.7946H103.94ZM105.813 8.66552V6.86294H111.207V8.66552H105.813Z" fill="currentColor"/>
<path d="M76.911 26.4075L80.0336 16.1881H82.9149L86.0374 26.4075H84.0503L81.2684 17.3946H81.6374L78.8981 26.4075H76.911ZM78.7845 24.2784V22.4758H84.1781V24.2784H78.7845Z" fill="currentColor"/>
<path d="M87.3094 26.4075V16.1881H89.2681L93.7107 23.001V16.1881H95.6694V26.4075H93.7107L89.2681 19.5946V26.4075H87.3094Z" fill="currentColor"/>
<path d="M97.6496 26.4075V16.1881H99.6083L104.051 23.001V16.1881H106.01V26.4075H104.051L99.6083 19.5946V26.4075H97.6496Z" fill="currentColor"/>
<path d="M112.376 26.6204C111.354 26.6204 110.471 26.398 109.729 25.9533C108.991 25.5085 108.42 24.8864 108.018 24.0868C107.621 23.2872 107.422 22.3576 107.422 21.2978C107.422 20.238 107.621 19.3083 108.018 18.5087C108.42 17.7092 108.991 17.087 109.729 16.6423C110.471 16.1976 111.354 15.9752 112.376 15.9752C113.398 15.9752 114.278 16.1976 115.016 16.6423C115.758 17.087 116.329 17.7092 116.726 18.5087C117.128 19.3083 117.329 20.238 117.329 21.2978C117.329 22.3576 117.128 23.2872 116.726 24.0868C116.329 24.8864 115.758 25.5085 115.016 25.9533C114.278 26.398 113.398 26.6204 112.376 26.6204ZM112.376 24.8036C113.024 24.813 113.563 24.6735 113.994 24.3849C114.424 24.0963 114.746 23.687 114.959 23.1571C115.177 22.6272 115.285 22.0075 115.285 21.2978C115.285 20.5881 115.177 19.973 114.959 19.4526C114.746 18.9322 114.424 18.5277 113.994 18.2391C113.563 17.9505 113.024 17.8014 112.376 17.792C111.727 17.7825 111.188 17.9221 110.758 18.2107C110.327 18.4993 110.003 18.9085 109.785 19.4384C109.572 19.9683 109.466 20.5881 109.466 21.2978C109.466 22.0075 109.572 22.6225 109.785 23.1429C110.003 23.6634 110.327 24.0679 110.758 24.3565C111.188 24.6451 111.727 24.7941 112.376 24.8036Z" fill="currentColor"/>
<path d="M120.839 26.4075V17.9907H117.617V16.1881H125.991V17.9907H122.769V26.4075H120.839Z" fill="currentColor"/>
<path d="M126.145 26.4075L129.267 16.1881H132.149L135.271 26.4075H133.284L130.502 17.3946H130.871L128.132 26.4075H126.145ZM128.018 24.2784V22.4758H133.412V24.2784H128.018Z" fill="currentColor"/>
<path d="M138.068 26.4075V17.9907H134.846V16.1881H143.22V17.9907H139.998V26.4075H138.068Z" fill="currentColor"/>
<path d="M144.503 26.4075V16.1881H146.433V26.4075H144.503Z" fill="currentColor"/>
<path d="M152.946 26.6204C151.925 26.6204 151.042 26.398 150.299 25.9533C149.561 25.5085 148.991 24.8864 148.589 24.0868C148.192 23.2872 147.993 22.3576 147.993 21.2978C147.993 20.238 148.192 19.3083 148.589 18.5087C148.991 17.7092 149.561 17.087 150.299 16.6423C151.042 16.1976 151.925 15.9752 152.946 15.9752C153.968 15.9752 154.848 16.1976 155.586 16.6423C156.329 17.087 156.899 17.7092 157.297 18.5087C157.699 19.3083 157.9 20.238 157.9 21.2978C157.9 22.3576 157.699 23.2872 157.297 24.0868C156.899 24.8864 156.329 25.5085 155.586 25.9533C154.848 26.398 153.968 26.6204 152.946 26.6204ZM152.946 24.8036C153.595 24.813 154.134 24.6735 154.565 24.3849C154.995 24.0963 155.317 23.687 155.53 23.1571C155.747 22.6272 155.856 22.0075 155.856 21.2978C155.856 20.5881 155.747 19.973 155.53 19.4526C155.317 18.9322 154.995 18.5277 154.565 18.2391C154.134 17.9505 153.595 17.8014 152.946 17.792C152.298 17.7825 151.759 17.9221 151.328 18.2107C150.898 18.4993 150.574 18.9085 150.356 19.4384C150.143 19.9683 150.037 20.5881 150.037 21.2978C150.037 22.0075 150.143 22.6225 150.356 23.1429C150.574 23.6634 150.898 24.0679 151.328 24.3565C151.759 24.6451 152.298 24.7941 152.946 24.8036Z" fill="currentColor"/>
<path d="M159.317 26.4075V16.1881H161.275L165.718 23.001V16.1881H167.677V26.4075H165.718L161.275 19.5946V26.4075H159.317Z" fill="currentColor"/>
<path d="M79.991 42.0204V33.6036H76.769V31.801H85.1432V33.6036H81.9213V42.0204H79.991Z" fill="currentColor"/>
<path d="M86.2837 42.0204V31.801H92.9547V33.6036H88.214V35.7894H92.1031V37.592H88.214V40.2178H92.9547V42.0204H86.2837Z" fill="currentColor"/>
<path d="M98.6811 42.2333C97.6592 42.2333 96.7768 42.0109 96.034 41.5662C95.2959 41.1214 94.7258 40.4993 94.3237 39.6997C93.9263 38.9001 93.7276 37.9705 93.7276 36.9107C93.7276 35.8509 93.9263 34.9212 94.3237 34.1216C94.7258 33.3221 95.2959 32.6999 96.034 32.2552C96.7768 31.8105 97.6592 31.5881 98.6811 31.5881C99.8544 31.5881 100.839 31.8791 101.633 32.461C102.433 33.0429 102.996 33.8307 103.322 34.8242L101.378 35.3636C101.189 34.7438 100.869 34.2636 100.42 33.9229C99.9704 33.5776 99.3908 33.4049 98.6811 33.4049C98.0329 33.4049 97.4912 33.5492 97.0559 33.8378C96.6254 34.1264 96.3013 34.5333 96.0837 35.0584C95.8661 35.5836 95.7572 36.201 95.7572 36.9107C95.7572 37.6204 95.8661 38.2378 96.0837 38.7629C96.3013 39.2881 96.6254 39.695 97.0559 39.9836C97.4912 40.2722 98.0329 40.4165 98.6811 40.4165C99.3908 40.4165 99.9704 40.2438 100.42 39.8984C100.869 39.553 101.189 39.0728 101.378 38.4578L103.322 38.9971C102.996 39.9907 102.433 40.7784 101.633 41.3604C100.839 41.9423 99.8544 42.2333 98.6811 42.2333Z" fill="currentColor"/>
<path d="M104.885 42.0204V31.801H106.815V36.0023H111.386V31.801H113.316V42.0204H111.386V37.8049H106.815V42.0204H104.885Z" fill="currentColor"/>
<path d="M36.3874 21.0449C36.3874 25.838 35.4657 29.8452 33.6222 33.0664C31.7981 36.2683 29.1493 38.6843 25.6757 40.3143C22.2022 41.9249 18.0204 42.7303 13.1302 42.7303H1.07959V0.174561H14.4401C18.9033 0.174561 22.7747 0.970175 26.0541 2.56141C29.3336 4.13323 31.8757 6.47156 33.6804 9.5764C35.4851 12.6618 36.3874 16.4847 36.3874 21.0449ZM27.0147 21.2778C27.0147 18.1341 26.549 15.5532 25.6175 13.5351C24.7055 11.4975 23.3471 9.99361 21.5424 9.02335C19.7571 8.05309 17.5449 7.56796 14.9058 7.56796H10.103V35.2786H13.9744C18.3794 35.2786 21.6491 34.1046 23.7837 31.7566C25.9377 29.4086 27.0147 25.9156 27.0147 21.2778Z" fill="currentColor"/>
<path fill-rule="evenodd" clip-rule="evenodd" d="M48.846 24.9884H41.1431V33.5045H51.2891L54.0993 42.7303H63.8213L48.7434 0H41.4335L47.733 21.4182L48.846 24.9884Z" fill="currentColor"/>
</svg>